<svg width="154" height="154" viewBox="0 0 154 154" fill="none" xmlns="http://www.w3.org/2000/svg">
<path d="M76.7391 0.913086C34.5151 0.913086 0.304321 35.1238 0.304321 77.3479C0.304321 119.572 34.5151 153.783 76.7391 153.783C118.963 153.783 153.174 119.572 153.174 77.3479C153.174 35.1238 118.963 0.913086 76.7391 0.913086ZM76.7391 30.5007C91.7179 30.5007 103.861 42.644 103.861 57.6228C103.861 72.6015 91.7179 84.7448 76.7391 84.7448C61.7604 84.7448 49.6171 72.6015 49.6171 57.6228C49.6171 42.644 61.7604 30.5007 76.7391 30.5007ZM76.7391 136.523C58.6475 136.523 42.4359 128.325 31.5871 115.504C37.3814 104.593 48.7233 97.073 61.9453 97.073C62.685 97.073 63.4247 97.1963 64.1335 97.412C68.1402 98.7065 72.3318 99.5386 76.7391 99.5386C81.1464 99.5386 85.3688 98.7065 89.3447 97.412C90.0535 97.1963 90.7932 97.073 91.5329 97.073C104.755 97.073 116.097 104.593 121.891 115.504C111.042 128.325 94.8307 136.523 76.7391 136.523Z" fill="#FF859B"/>
</svg>
